<svg width="988" height="160" viewBox="0 0 988 160" fill="none" xmlns="http://www.w3.org/2000/svg">
<path d="M-55.6773 136.002C14.8401 157.315 101.182 159.912 175.803 142.958C232.687 130.032 281.119 106.86 334.477 89.3968C425.098 59.7311 531.013 46.8556 633.452 53.0422C706.869 57.4799 778.102 71.3894 851.908 73.0423C925.713 74.6952 1007.72 60.6799 1046.52 23.3082C1051.05 18.9456 1054.99 13.5991 1051.72 8.9137C1047.51 2.88283 1034.31 1.538 1023.24 1.0603C701.093 -12.7681 377.245 -14.8112 54.169 -5.0606C33.7734 -4.44224 12.1218 -3.53353 -4.5914 3.50466C-26.1775 12.5998 -33.7204 29.6501 -33.3486 45.1976C-32.9771 60.751 -26.365 76.0547 -26.6274 91.6159C-26.8895 107.171 -35.942 124.152 -58.547 132.321" fill="#FF1D8E"/>
<path d="M-70.9047 142.128C-37.2097 147.184 -0.177098 139.829 26.5576 128.957C53.2923 118.085 72.9639 103.923 97.1617 91.7994C162.106 59.2572 283.545 77.0087 360.932 88.8639C426.89 98.9683 474.712 123.268 548.926 123.268C623.681 123.268 700.094 100.536 766.02 83.9589C831.947 67.3814 1014.29 -13.8115 1087.7 -7.05021C727.523 -20.4285 257.702 -10.2881 -103.398 -5.85432C-128.439 -5.54565 -155.491 -4.85911 -174.84 2.62396C-200.966 12.7269 -202.972 31.2203 -197.425 46.9524C-184.15 84.6059 -138.845 119.564 -73.7888 142.335" fill="url(#paint0_linear_432_439078)"/>
<defs>
<linearGradient id="paint0_linear_432_439078" x1="391.495" y1="-6.61682" x2="389.108" y2="150.423" gradientUnits="userSpaceOnUse">
<stop stop-color="#AB21FF"/>
<stop offset="1" stop-color="#AB21FF" stop-opacity="0"/>
</linearGradient>
</defs>
</svg>
